<svg id="visual" viewBox="0 0 960 540" width="960" height="540" xmlns="http://www.w3.org/2000/svg" xmlns:xlink="http://www.w3.org/1999/xlink" version="1.1"><rect x="0" y="0" width="960" height="540" fill="#FBFDFE"></rect><defs><linearGradient id="grad1_0" x1="43.8%" y1="0%" x2="100%" y2="100%"><stop offset="14.444444444444446%" stop-color="#057aff" stop-opacity="1"></stop><stop offset="85.55555555555554%" stop-color="#057aff" stop-opacity="1"></stop></linearGradient></defs><defs><linearGradient id="grad1_1" x1="43.8%" y1="0%" x2="100%" y2="100%"><stop offset="14.444444444444446%" stop-color="#057aff" stop-opacity="1"></stop><stop offset="85.55555555555554%" stop-color="#2c99ff" stop-opacity="1"></stop></linearGradient></defs><defs><linearGradient id="grad1_2" x1="43.8%" y1="0%" x2="100%" y2="100%"><stop offset="14.444444444444446%" stop-color="#5eb5ff" stop-opacity="1"></stop><stop offset="85.55555555555554%" stop-color="#2c99ff" stop-opacity="1"></stop></linearGradient></defs><defs><linearGradient id="grad1_3" x1="43.8%" y1="0%" x2="100%" y2="100%"><stop offset="14.444444444444446%" stop-color="#5eb5ff" stop-opacity="1"></stop><stop offset="85.55555555555554%" stop-color="#91cfff" stop-opacity="1"></stop></linearGradient></defs><defs><linearGradient id="grad1_4" x1="43.8%" y1="0%" x2="100%" y2="100%"><stop offset="14.444444444444446%" stop-color="#c5e7fe" stop-opacity="1"></stop><stop offset="85.55555555555554%" stop-color="#91cfff" stop-opacity="1"></stop></linearGradient></defs><defs><linearGradient id="grad1_5" x1="43.8%" y1="0%" x2="100%" y2="100%"><stop offset="14.444444444444446%" stop-color="#c5e7fe" stop-opacity="1"></stop><stop offset="85.55555555555554%" stop-color="#fbfdfe" stop-opacity="1"></stop></linearGradient></defs><defs><linearGradient id="grad2_0" x1="0%" y1="0%" x2="56.3%" y2="100%"><stop offset="14.444444444444446%" stop-color="#057aff" stop-opacity="1"></stop><stop offset="85.55555555555554%" stop-color="#057aff" stop-opacity="1"></stop></linearGradient></defs><defs><linearGradient id="grad2_1" x1="0%" y1="0%" x2="56.3%" y2="100%"><stop offset="14.444444444444446%" stop-color="#2c99ff" stop-opacity="1"></stop><stop offset="85.55555555555554%" stop-color="#057aff" stop-opacity="1"></stop></linearGradient></defs><defs><linearGradient id="grad2_2" x1="0%" y1="0%" x2="56.3%" y2="100%"><stop offset="14.444444444444446%" stop-color="#2c99ff" stop-opacity="1"></stop><stop offset="85.55555555555554%" stop-color="#5eb5ff" stop-opacity="1"></stop></linearGradient></defs><defs><linearGradient id="grad2_3" x1="0%" y1="0%" x2="56.3%" y2="100%"><stop offset="14.444444444444446%" stop-color="#91cfff" stop-opacity="1"></stop><stop offset="85.55555555555554%" stop-color="#5eb5ff" stop-opacity="1"></stop></linearGradient></defs><defs><linearGradient id="grad2_4" x1="0%" y1="0%" x2="56.3%" y2="100%"><stop offset="14.444444444444446%" stop-color="#91cfff" stop-opacity="1"></stop><stop offset="85.55555555555554%" stop-color="#c5e7fe" stop-opacity="1"></stop></linearGradient></defs><defs><linearGradient id="grad2_5" x1="0%" y1="0%" x2="56.3%" y2="100%"><stop offset="14.444444444444446%" stop-color="#fbfdfe" stop-opacity="1"></stop><stop offset="85.55555555555554%" stop-color="#c5e7fe" stop-opacity="1"></stop></linearGradient></defs><g transform="translate(960, 0)"><path d="M0 351C-35.2 339 -70.4 327.1 -101.4 311.9C-132.3 296.8 -159.1 278.6 -190.4 262.1C-221.7 245.7 -257.5 231 -283.2 205.7C-308.8 180.4 -324.2 144.5 -333.8 108.5C-343.4 72.4 -347.2 36.2 -351 0L0 0Z" fill="#dff2fd"></path><path d="M0 292.5C-29.3 282.5 -58.6 272.5 -84.5 260C-110.3 247.4 -132.6 232.1 -158.7 218.4C-184.8 204.7 -214.6 192.5 -236 171.4C-257.3 150.4 -270.2 120.4 -278.2 90.4C-286.2 60.3 -289.3 30.2 -292.5 0L0 0Z" fill="#aadcff"></path><path d="M0 234C-23.5 226 -46.9 218 -67.6 208C-88.2 197.9 -106.1 185.7 -127 174.7C-147.8 163.8 -171.7 154 -188.8 137.1C-205.8 120.3 -216.1 96.3 -222.5 72.3C-229 48.3 -231.5 24.1 -234 0L0 0Z" fill="#77c2ff"></path><path d="M0 175.5C-17.6 169.5 -35.2 163.5 -50.7 156C-66.2 148.4 -79.6 139.3 -95.2 131.1C-110.9 122.8 -128.8 115.5 -141.6 102.9C-154.4 90.2 -162.1 72.3 -166.9 54.2C-171.7 36.2 -173.6 18.1 -175.5 0L0 0Z" fill="#45a7ff"></path><path d="M0 117C-11.7 113 -23.5 109 -33.8 104C-44.1 98.9 -53 92.9 -63.5 87.4C-73.9 81.9 -85.8 77 -94.4 68.6C-102.9 60.1 -108.1 48.2 -111.3 36.2C-114.5 24.1 -115.7 12.1 -117 0L0 0Z" fill="#138aff"></path><path d="M0 58.5C-5.9 56.5 -11.7 54.5 -16.9 52C-22.1 49.5 -26.5 46.4 -31.7 43.7C-37 40.9 -42.9 38.5 -47.2 34.3C-51.5 30.1 -54 24.1 -55.6 18.1C-57.2 12.1 -57.9 6 -58.5 0L0 0Z" fill="#057aff"></path></g><g transform="translate(0, 540)"><path d="M0 -351C37.6 -349.4 75.2 -347.8 108.5 -333.8C141.8 -319.8 170.8 -293.4 193.4 -266.2C216 -239 232.3 -211 254.8 -185.2C277.4 -159.3 306.3 -135.6 323.4 -105.1C340.4 -74.6 345.7 -37.3 351 0L0 0Z" fill="#dff2fd"></path><path d="M0 -292.5C31.3 -291.2 62.6 -289.9 90.4 -278.2C118.1 -266.5 142.3 -244.5 161.2 -221.8C180 -199.1 193.6 -175.8 212.4 -154.3C231.2 -132.8 255.2 -113 269.5 -87.6C283.7 -62.1 288.1 -31.1 292.5 0L0 0Z" fill="#aadcff"></path><path d="M0 -234C25.1 -232.9 50.1 -231.9 72.3 -222.5C94.5 -213.2 113.8 -195.6 128.9 -177.4C144 -159.3 154.8 -140.7 169.9 -123.4C184.9 -106.2 204.2 -90.4 215.6 -70C227 -49.7 230.5 -24.9 234 0L0 0Z" fill="#77c2ff"></path><path d="M0 -175.5C18.8 -174.7 37.6 -173.9 54.2 -166.9C70.9 -159.9 85.4 -146.7 96.7 -133.1C108 -119.5 116.1 -105.5 127.4 -92.6C138.7 -79.7 153.1 -67.8 161.7 -52.5C170.2 -37.3 172.9 -18.6 175.5 0L0 0Z" fill="#45a7ff"></path><path d="M0 -117C12.5 -116.5 25.1 -115.9 36.2 -111.3C47.3 -106.6 56.9 -97.8 64.5 -88.7C72 -79.7 77.4 -70.3 84.9 -61.7C92.5 -53.1 102.1 -45.2 107.8 -35C113.5 -24.9 115.2 -12.4 117 0L0 0Z" fill="#138aff"></path><path d="M0 -58.5C6.3 -58.2 12.5 -58 18.1 -55.6C23.6 -53.3 28.5 -48.9 32.2 -44.4C36 -39.8 38.7 -35.2 42.5 -30.9C46.2 -26.6 51 -22.6 53.9 -17.5C56.7 -12.4 57.6 -6.2 58.5 0L0 0Z" fill="#057aff"></path></g></svg>